HIERARCHY
ROOT root
{
	OFFSET 0.000000 0.000000 0.000000
	CHANNELS 6 Xposition Yposition Zposition Zrotation Yrotation Xrotation
	JOINT lhip
	{
		OFFSET 0.058581 -0.082280 -0.017664
		CHANNELS 3 Zrotation Yrotation Xrotation
		JOINT lknee
		{
			OFFSET 0.043451 -0.386469 0.008037
			CHANNELS 3 Zrotation Yrotation Xrotation
			JOINT lankle
			{
				OFFSET -0.014790 -0.426874 -0.037428
				CHANNELS 3 Zrotation Yrotation Xrotation
				JOINT ltoe
				{
					OFFSET 0.041054 -0.060286 0.122042
					CHANNELS 3 Zrotation Yrotation Xrotation
					End Site
					{
						OFFSET 0.000000 0.000000 0.000000
					}
				}
			}
		}
	}
	JOINT rhip
	{
		OFFSET -0.060310 -0.090513 -0.013543
		CHANNELS 3 Zrotation Yrotation Xrotation
		JOINT rknee
		{
			OFFSET -0.043257 -0.383688 -0.004843
			CHANNELS 3 Zrotation Yrotation Xrotation
			JOINT rankle
			{
				OFFSET 0.019056 -0.420046 -0.034562
				CHANNELS 3 Zrotation Yrotation Xrotation
				JOINT rtoe
				{
					OFFSET -0.034840 -0.062106 0.130323
					CHANNELS 3 Zrotation Yrotation Xrotation
					End Site
					{
						OFFSET 0.000000 0.000000 0.000000
					}
				}
			}
		}
	}
	JOINT lowerback
	{
		OFFSET 0.004439 0.124404 -0.038385
		CHANNELS 3 Zrotation Yrotation Xrotation
		JOINT upperback
		{
			OFFSET 0.004488 0.137956 0.026820
			CHANNELS 3 Zrotation Yrotation Xrotation
			JOINT chest
			{
				OFFSET -0.002265 0.056032 0.002855
				CHANNELS 3 Zrotation Yrotation Xrotation
				JOINT lowerneck
				{
					OFFSET -0.013390 0.211636 -0.033468
					CHANNELS 3 Zrotation Yrotation Xrotation
					JOINT upperneck
					{
						OFFSET 0.010113 0.088937 0.050410
						CHANNELS 3 Zrotation Yrotation Xrotation
						End Site
						{
							OFFSET 0.000000 0.000000 0.000000
						}
					}
				}
				JOINT lclavicle
				{
					OFFSET 0.071702 0.114000 -0.018898
					CHANNELS 3 Zrotation Yrotation Xrotation
					JOINT lshoulder
					{
						OFFSET 0.122921 0.045205 -0.019046
						CHANNELS 3 Zrotation Yrotation Xrotation
						JOINT lelbow
						{
							OFFSET 0.255332 -0.015649 -0.022946
							CHANNELS 3 Zrotation Yrotation Xrotation
							JOINT lwrist
							{
								OFFSET 0.265709 0.012698 -0.007375
								CHANNELS 3 Zrotation Yrotation Xrotation
								End Site
								{
									OFFSET 0.000000 0.000000 0.000000
								}
							}
						}
					}
				}
				JOINT rclavicle
				{
					OFFSET -0.082954 0.112472 -0.023707
					CHANNELS 3 Zrotation Yrotation Xrotation
					JOINT rshoulder
					{
						OFFSET -0.113228 0.046853 -0.008472
						CHANNELS 3 Zrotation Yrotation Xrotation
						JOINT relbow
						{
							OFFSET -0.260127 -0.014369 -0.031269
							CHANNELS 3 Zrotation Yrotation Xrotation
							JOINT rwrist
							{
								OFFSET -0.269108 0.006794 -0.006027
								CHANNELS 3 Zrotation Yrotation Xrotation
								End Site
								{
									OFFSET 0.000000 0.000000 0.000000
								}
							}
						}
					}
				}
			}
		}
	}
}
MOTION
Frames: 17
Frame Time: 0.033333
0.058379 0.769671 0.964743 -27.313271 -9.452798 102.201973 14.625465 2.630539 -1.922837 0.672063 0.464977 6.021539 -10.872208 11.404842 18.799954 0.000000 -0.000000 0.000000 -17.502959 -5.199766 -33.314994 0.915005 -3.255746 27.962282 4.903412 4.873884 -6.692998 0.000000 -0.000000 0.000000 8.867649 -2.692727 20.755588 -0.474754 4.930506 1.777535 1.591563 2.220104 0.804199 -1.939352 0.441219 -10.686082 3.256179 5.337087 -7.534374 -20.867954 4.326641 -3.248134 -61.547031 -1.581345 -6.291979 45.711632 -33.754095 -55.638733 42.551100 13.826159 -26.185051 16.869015 15.470877 -1.230349 67.067845 21.118050 29.585214 158.212755 82.596791 -176.467359 -23.715230 8.677970 12.675082 
0.057536 0.768453 0.964648 -26.798631 -9.784764 102.262217 14.466850 2.426973 -2.228874 0.605057 0.315028 5.893349 -10.547205 11.260890 19.629237 0.000000 -0.000000 0.000000 -17.795752 -5.501074 -33.167403 1.100838 -2.943150 27.986421 4.527779 4.299359 -7.078960 0.000000 -0.000000 0.000000 9.121203 -2.788156 20.243103 -0.531142 4.894795 2.094133 1.401973 2.113002 0.775219 -2.827981 1.874606 -11.302723 2.196613 7.095395 -6.615782 -20.952393 4.533043 -3.243751 -61.502120 -1.787959 -6.502121 46.126620 -34.023367 -54.908670 41.598646 13.659429 -26.605436 17.035911 15.230836 -0.945172 66.333875 21.528035 29.285579 160.295736 82.137873 -173.557935 -21.165899 8.147730 11.622468 
0.055918 0.767895 0.964621 -26.492009 -9.873017 102.194161 14.617957 2.259297 -2.178974 0.457436 0.268854 5.514048 -10.465559 11.289469 20.599908 0.000000 -0.000000 0.000000 -17.850091 -5.352336 -33.003767 1.053081 -2.945626 28.091306 4.373221 3.980581 -7.339573 0.000000 -0.000000 0.000000 9.142527 -2.863459 20.169817 -0.668219 5.057832 2.068211 1.314420 2.277180 0.746128 -4.003214 4.291289 -11.596332 1.224282 9.128931 -6.425380 -20.665112 4.733623 -3.271654 -61.545726 -1.988005 -6.630413 46.344121 -34.526911 -54.088015 41.112574 13.618623 -26.943437 17.317051 14.842841 -0.700602 66.370784 21.928796 29.195533 161.083394 82.133061 -171.975615 -20.856025 8.011256 10.510727 
0.055031 0.767050 0.965459 -25.948560 -10.104392 101.865839 14.289806 2.441633 -2.273011 0.824543 -0.031756 5.533423 -10.494056 11.038585 21.569078 0.000000 -0.000000 0.000000 -17.900937 -5.693126 -32.492327 0.757394 -3.010550 28.142656 4.286370 4.245437 -7.616961 0.000000 -0.000000 0.000000 9.480711 -3.022015 20.607126 -1.158213 5.046731 1.522860 1.064078 2.458991 0.900565 -5.663810 7.012511 -11.954522 -0.056446 11.624781 -6.498640 -20.422495 4.615520 -3.384068 -61.359468 -1.996309 -6.831732 46.629555 -35.331250 -54.052519 41.264858 13.378684 -26.597280 17.326450 14.640077 -0.620919 67.065460 21.729540 29.258198 162.777086 82.275123 -170.804877 -21.890396 8.548963 11.514660 
0.054113 0.766810 0.966315 -25.350129 -10.373856 101.743883 14.145079 2.357842 -2.633054 0.889114 -0.087373 5.564213 -10.511205 10.905747 22.513369 0.000000 -0.000000 0.000000 -18.027836 -5.925362 -32.200250 0.615516 -2.949197 28.150719 4.112941 4.085278 -7.826020 0.000000 -0.000000 0.000000 9.853940 -3.026095 20.829130 -1.767808 5.318089 1.186307 0.754726 2.531722 0.724637 -7.752030 9.135530 -12.574594 -0.934564 14.297632 -6.643019 -20.262700 4.065540 -3.548992 -60.971674 -1.680926 -6.910478 47.118232 -36.205362 -54.280323 41.133555 12.893778 -26.440291 17.261902 14.825433 -0.385472 67.267417 21.049128 29.092397 167.500450 82.040344 -166.869977 -21.322577 8.723102 12.515392 
0.051080 0.767714 0.967247 -25.643827 -10.157830 101.527233 14.668998 2.888025 -2.163956 0.615131 0.016368 5.208642 -10.908656 10.990002 23.352139 0.000000 -0.000000 0.000000 -17.431118 -5.129682 -32.191860 0.149322 -2.608593 28.472163 3.863750 3.959872 -8.184444 0.000000 -0.000000 0.000000 9.782628 -2.751963 21.735204 -2.338563 6.220239 0.835395 0.659575 2.796848 0.394777 -9.722404 12.172281 -13.272601 -2.085071 17.174032 -6.342866 -20.100369 3.682727 -3.992036 -60.559626 -1.363286 -6.806563 47.645384 -37.228032 -54.338247 40.924245 12.551637 -26.302501 17.019364 14.805385 -0.324719 67.733860 20.402178 29.040144 170.095336 81.733428 -164.813511 -21.647377 8.661813 13.081135 
0.050172 0.766909 0.967929 -25.158187 -10.328055 101.546624 14.643345 2.718349 -2.365316 0.625701 0.225459 4.964637 -10.886380 10.754412 24.146371 0.000000 -0.000000 0.000000 -17.455657 -5.367026 -32.035316 -0.124736 -2.751414 28.447321 3.648558 3.975843 -8.482144 0.000000 -0.000000 0.000000 10.132879 -2.667131 21.754401 -2.899696 6.471932 0.543009 0.343179 3.056617 0.204877 -11.629792 15.085009 -13.567153 -3.318300 20.006881 -6.597133 -20.152859 3.402904 -4.113226 -60.273594 -1.486762 -6.825453 48.512285 -38.078013 -54.198355 40.343190 12.284793 -26.369433 16.988655 14.487127 0.131683 67.867372 20.114068 28.702000 172.249622 81.424342 -161.980785 -21.473285 8.631909 12.537268 
0.048802 0.766569 0.968139 -24.808960 -10.456739 101.610339 14.659561 2.590519 -2.632203 0.646664 0.302287 4.939939 -10.849039 10.460458 24.740922 0.000000 -0.000000 0.000000 -17.511492 -5.614578 -32.020364 -0.161763 -2.878026 28.577831 3.553910 4.101545 -8.505716 0.000000 -0.000000 0.000000 10.220352 -2.558467 21.767426 -3.363948 6.747385 0.234654 0.015513 3.399983 0.195216 -12.999183 17.639261 -14.130187 -4.233581 22.016687 -6.192829 -19.759219 3.320597 -4.120541 -60.610748 -1.915374 -6.720677 49.866012 -38.896864 -54.355760 39.636216 11.910032 -26.797665 16.753294 14.149974 0.561646 68.336722 19.996727 28.505768 174.474720 81.044301 -159.212861 -19.698027 8.274274 12.219933 
0.046813 0.766425 0.968445 -24.598528 -10.537627 101.601646 14.770285 2.441703 -2.733959 0.626492 0.315593 4.934472 -10.924908 10.413581 25.175662 0.000000 -0.000000 0.000000 -17.488776 -5.665681 -31.974392 -0.241225 -2.996485 28.783342 3.517477 4.174562 -8.592105 0.000000 -0.000000 0.000000 10.041479 -2.304850 21.827669 -3.673746 6.978801 0.098596 -0.178984 3.592599 0.129749 -13.875614 19.495151 -14.582095 -4.807882 23.253063 -5.875505 -19.561842 3.259263 -4.078783 -60.647563 -2.218358 -6.532424 51.116184 -39.706169 -54.780788 39.305577 11.611529 -27.002871 16.933040 13.965071 0.886932 68.258293 19.956582 28.392114 175.149388 80.661514 -158.121091 -18.756984 7.870674 11.564532 
0.045010 0.766396 0.968757 -24.404290 -10.604350 101.743323 14.799673 2.274727 -2.986457 0.699241 0.181718 4.923519 -10.832800 10.553053 25.465343 0.000000 -0.000000 0.000000 -17.463237 -5.699732 -32.142672 -0.212444 -3.053876 29.000109 3.459373 4.011141 -8.726270 0.000000 -0.000000 0.000000 10.012060 -2.262006 21.755462 -4.120542 7.178126 -0.176194 -0.403213 3.735244 0.152110 -14.325718 20.179067 -14.652804 -4.793058 24.007634 -5.910612 -19.504671 3.175703 -4.152849 -60.237399 -2.252452 -6.301531 51.868872 -40.414741 -55.062041 39.420805 11.510562 -27.236638 16.654541 14.049235 0.978454 68.416827 19.820685 28.455884 173.953416 80.706898 -159.358621 -20.021481 8.141416 11.500701 
0.042838 0.766491 0.969166 -24.303362 -10.517090 101.737000 15.091671 2.371089 -3.006329 0.651062 0.246407 4.879829 -11.091600 10.443430 25.902858 0.000000 -0.000000 0.000000 -17.290881 -5.633485 -32.170694 -0.189090 -3.166896 29.231665 3.370937 3.985067 -8.677499 0.000000 -0.000000 0.000000 9.801265 -2.232571 21.849580 -4.252683 7.330899 -0.412271 -0.487343 3.814700 0.201368 -14.254693 20.244842 -14.693354 -4.724193 24.044390 -5.707580 -19.481195 3.307421 -4.211559 -60.106186 -2.415693 -6.165854 52.611909 -40.888719 -55.409548 39.325697 11.256973 -27.153126 16.671085 14.084830 0.911409 68.222037 19.722914 28.489913 173.158674 80.584173 -159.978402 -18.592221 7.886973 11.087081 
0.040696 0.767085 0.969512 -24.243283 -10.435657 101.892282 15.311431 2.145985 -3.304886 0.662845 0.353546 5.048624 -11.164644 10.605200 26.171825 0.000000 -0.000000 0.000000 -17.050030 -5.441027 -32.338341 -0.207961 -3.155965 29.299072 3.069171 3.700743 -8.782027 0.000000 -0.000000 0.000000 9.598124 -2.165135 21.643079 -4.267402 7.364643 -0.296633 -0.568310 3.674373 0.074742 -13.936391 19.845714 -14.433265 -4.536050 23.572508 -5.613899 -19.670472 3.410663 -4.126437 -59.574101 -2.375245 -5.980968 53.039547 -41.243697 -55.360451 39.232692 11.153641 -27.434611 16.687689 14.110886 0.838944 68.108054 19.906069 28.765407 171.760415 80.792353 -161.092684 -18.969431 8.002549 10.507511 
0.039142 0.767302 0.969737 -24.422240 -10.397039 101.737742 15.362062 2.140467 -3.182057 0.710222 0.368716 5.219969 -11.037880 10.823213 26.381775 0.000000 -0.000000 0.000000 -16.922731 -5.420537 -32.143395 -0.124191 -3.150688 29.242832 3.014215 3.823958 -8.847845 0.000000 -0.000000 0.000000 9.367935 -2.154228 21.818417 -4.310148 7.273406 -0.183723 -0.572098 3.587726 0.168835 -13.514165 18.825246 -14.474277 -4.188249 22.621115 -5.340458 -19.761865 3.441057 -4.225343 -59.313434 -2.370570 -5.903597 53.458410 -41.488098 -56.002590 39.332444 10.935417 -27.293899 16.630194 14.325255 0.606948 68.017027 20.030127 28.890932 170.501128 80.983253 -162.851198 -19.017851 8.139453 10.716217 
0.037667 0.767916 0.969794 -24.604250 -10.320067 101.881633 15.528187 2.076869 -3.374880 0.650282 0.481193 5.424469 -10.951124 10.728172 26.463337 0.000000 -0.000000 0.000000 -16.788876 -5.317588 -32.253058 -0.095131 -3.255186 29.130338 3.030845 3.921326 -8.836833 0.000000 -0.000000 0.000000 9.051920 -2.085535 21.737629 -4.175558 7.136798 -0.173514 -0.572912 3.393211 0.273073 -12.855603 17.241844 -14.469045 -3.724665 20.743052 -5.188668 -19.760147 3.829420 -4.160569 -59.243003 -2.747972 -5.874415 53.882823 -41.506070 -56.515023 39.225090 10.880689 -27.349662 16.887901 14.196062 0.467806 67.890050 20.149806 29.020850 169.113018 81.052060 -164.441352 -19.659092 8.175114 10.506313 
0.036225 0.768495 0.969902 -25.129636 -10.184812 101.959141 15.578843 2.126517 -3.258306 0.818434 0.660794 5.489866 -11.099597 11.054350 26.648907 0.000000 -0.000000 0.000000 -16.580794 -5.071413 -32.454353 0.008051 -3.210785 29.117809 3.029267 4.061334 -8.727475 0.000000 -0.000000 0.000000 8.821840 -2.248665 21.901704 -4.239074 7.076088 -0.170287 -0.659673 3.282688 0.348502 -12.307615 14.737089 -14.624770 -2.890992 18.047491 -5.279257 -19.800113 4.169896 -4.410204 -59.128183 -2.831698 -5.865041 54.516149 -41.368835 -56.974599 38.767462 10.802652 -27.182632 16.543213 14.423074 -0.181723 67.882981 19.953291 29.042308 167.350737 81.053875 -166.104996 -19.574427 7.857345 10.203467 
0.035089 0.769190 0.970114 -25.500084 -10.113173 102.111143 15.634440 2.228890 -3.320364 0.927902 0.617494 5.631687 -11.266184 11.155561 26.720995 0.000000 -0.000000 0.000000 -16.450189 -4.891136 -32.653980 0.084566 -3.150488 29.028680 3.047806 4.043666 -8.568932 0.000000 -0.000000 0.000000 8.519462 -2.477749 21.913505 -4.169844 6.857072 -0.323597 -0.768323 3.157429 0.638967 -11.123463 11.064330 -14.939417 -1.944256 14.251285 -5.127023 -19.970122 4.428628 -4.715664 -58.499064 -2.692204 -5.327084 54.663476 -41.231803 -57.857716 39.828529 10.836829 -26.578172 16.814029 14.711890 -0.900478 67.908941 19.413404 29.474497 168.207440 81.421132 -166.355843 -20.363945 8.067666 10.672963 
0.034119 0.769884 0.970064 -25.813158 -9.981826 102.382574 15.774160 2.410363 -3.486708 0.967506 0.638688 5.651723 -11.326772 11.096933 26.839671 0.000000 -0.000000 0.000000 -16.277920 -4.694532 -32.973427 0.173140 -3.152440 28.937600 2.979210 4.128344 -8.454242 0.000000 -0.000000 0.000000 8.310049 -2.664048 21.638751 -3.978968 6.665634 -0.156230 -0.853766 2.975220 0.510436 -10.119167 6.743076 -14.482396 -0.771952 9.732609 -5.638954 -20.019251 4.737461 -4.586997 -58.394571 -2.933650 -5.224201 54.967646 -40.977098 -58.143943 39.597808 10.852054 -26.643777 16.698133 14.836007 -1.126989 67.995294 19.186834 29.220310 167.123013 81.547177 -167.412337 -20.805822 7.918845 10.225419 
